<?xml version="1.0" encoding="utf-8"?>
<!-- Generator: Adobe Illustrator 19.2.1, SVG Export Plug-In . SVG Version: 6.00 Build 0)  -->
<svg version="1.1" baseProfile="tiny" id="Layer_1" xmlns="http://www.w3.org/2000/svg" xmlns:xlink="http://www.w3.org/1999/xlink"
	 x="0px" y="0px" width="208px" height="73px" viewBox="0 0 208 73" xml:space="preserve">
<g>
	<path fill="#FFFFFF" d="M47.7,39v8.3H45V27.7h5.2c4.9,0,7.5,1.9,7.5,5.6c0,2.8-1.4,4.4-4.2,5.3l5.3,8.8h-3.2L50.8,39H47.7z
		 M54.7,33.2c0-2.4-1.4-3.4-4.6-3.4h-2.4v7.1h2.7C53.2,36.9,54.7,35.9,54.7,33.2z"/>
	<path fill="#FFFFFF" d="M72,40.7h-9.6c0.3,3.5,1.9,4.8,4,4.8c1.5,0,2.6-0.4,3.9-1.3l1.1,1.6c-1.5,1.2-3.2,1.9-5.2,1.9
		c-4.2,0-6.6-2.9-6.6-7.7c0-4.7,2.4-8,6.2-8c4,0,6.2,2.8,6.2,7.4C72,39.9,72,40.4,72,40.7z M69.4,38.6c0-2.9-1.2-4.6-3.5-4.6
		c-2,0-3.3,1.4-3.5,4.7h7V38.6z"/>
	<path fill="#FFFFFF" d="M87,45.8l-0.6,1.8c-1.5-0.2-2.5-0.8-2.9-2.3c-1.1,1.6-2.6,2.3-4.5,2.3c-3,0-4.8-1.9-4.8-4.5
		c0-3.2,2.4-5,6.6-5h2.3V37c0-2.2-1.1-3-3.1-3c-1.1,0-2.5,0.3-4,0.8L75.3,33c1.9-0.7,3.5-1,5.2-1c3.6,0,5.3,1.9,5.3,5v6.9
		C85.7,45.1,86.2,45.5,87,45.8z M83.1,43.3v-3.4h-2c-2.8,0-4.2,1-4.2,3.1c0,1.8,0.9,2.7,2.6,2.7C81.1,45.7,82.3,44.9,83.1,43.3z"/>
	<path fill="#FFFFFF" d="M93.8,45.5c0.4,0,0.7-0.1,1-0.2l0.7,1.8c-0.7,0.3-1.5,0.5-2.2,0.5c-1.9,0-3-1.1-3-3.3V26.3l2.6-0.3v18.3
		C92.9,45.1,93.2,45.5,93.8,45.5z"/>
	<path fill="#FFFFFF" d="M101.2,26.9c0,1-0.7,1.8-1.9,1.8c-1.1,0-1.8-0.8-1.8-1.8c0-1,0.7-1.8,1.8-1.8
		C100.4,25.1,101.2,25.9,101.2,26.9z M98.1,47.3v-15h2.6v15H98.1z"/>
	<path fill="#FFFFFF" d="M109.6,47.6c-2.5,0-4-1.5-4-4.3v-9.1h-2.6v-2h2.6v-3.4l2.6-0.3v3.7h3.6l-0.3,2h-3.3v8.9
		c0,1.5,0.5,2.2,1.8,2.2c0.7,0,1.3-0.2,2-0.7l1,1.8C112,47.3,110.9,47.6,109.6,47.6z"/>
	<path fill="#FFFFFF" d="M114,53.4l-0.3-2.1c3-0.5,3.9-1.7,4.8-4h-0.9l-5-15h2.8l4,13.1l3.9-13.1h2.7l-5,15.1
		C119.9,50.6,118.1,52.9,114,53.4z"/>
	<path fill="#FFFFFF" d="M147.5,29.3l-1.5,1.7c-1.2-1-2.4-1.5-3.8-1.5c-3,0-5.4,2-5.4,7.9c0,5.7,2.4,7.9,5.4,7.9
		c1.9,0,3-0.8,4.2-1.7l1.4,1.7c-1.1,1.1-3,2.2-5.6,2.2c-4.8,0-8.2-3.6-8.2-10.2c0-6.6,3.7-10.1,8.1-10.1
		C144.6,27.3,146,28,147.5,29.3z"/>
	<path fill="#FFFFFF" d="M161.8,36.5v10.8h-2.6V36.9c0-2.3-1-2.9-2.4-2.9c-1.6,0-2.8,1.1-3.8,2.6v10.7h-2.6v-21L153,26v8.4
		c1.1-1.5,2.6-2.4,4.4-2.4C160.1,31.9,161.8,33.7,161.8,36.5z"/>
	<path fill="#FFFFFF" d="M176.6,40.7H167c0.3,3.5,1.9,4.8,4,4.8c1.5,0,2.6-0.4,3.9-1.3l1.1,1.6c-1.5,1.2-3.2,1.9-5.2,1.9
		c-4.2,0-6.6-2.9-6.6-7.7c0-4.7,2.4-8,6.2-8c4,0,6.2,2.8,6.2,7.4C176.7,39.9,176.6,40.4,176.6,40.7z M174.1,38.6
		c0-2.9-1.2-4.6-3.5-4.6c-2,0-3.3,1.4-3.5,4.7h7V38.6z"/>
	<path fill="#FFFFFF" d="M189.9,33.6l-1.3,1.7c-1-0.8-1.9-1.2-3.2-1.2c-2.4,0-3.8,1.9-3.8,5.8c0,3.9,1.5,5.6,3.8,5.6
		c1.3,0,2.1-0.4,3.2-1.2l1.3,1.8c-1.3,1.1-2.8,1.7-4.6,1.7c-4,0-6.6-2.9-6.6-7.7c0-4.8,2.5-8,6.6-8
		C187.1,31.9,188.5,32.4,189.9,33.6z"/>
	<path fill="#FFFFFF" d="M192.5,47.3V26.3l2.6-0.3v21.4H192.5z M204.3,47.3h-3.1l-6-8.2l5.5-6.8h2.9l-5.5,6.6L204.3,47.3z"/>
</g>
<polygon fill="#0070BA" stroke="#0070BA" stroke-linecap="round" stroke-linejoin="round" stroke-miterlimit="10" points="21.9,64 
	9.9,25.5 26.4,25.2 "/>
<circle fill="#F9A233" cx="17.3" cy="13.7" r="6.9"/>
<path fill="none" stroke="#0070BA" stroke-width="3" stroke-linecap="round" stroke-miterlimit="10" d="M22.3,43.4
	c0,0-16.5-1.3-17.3-9.6c-0.8-8.6,9.5-9.3,14.6-9.7c4.9-0.4,15.9-0.3,14.2,7c-1.2,5.4-12.3,13.3-12.3,13.3"/>
</svg>
