<?xml version="1.0" standalone="no"?>
<!DOCTYPE svg PUBLIC "-//W3C//DTD SVG 20010904//EN"
 "http://www.w3.org/TR/2001/REC-SVG-20010904/DTD/svg10.dtd">
<svg version="1.0" xmlns="http://www.w3.org/2000/svg"
 width="260.000000pt" height="260.000000pt" viewBox="0 0 260.000000 260.000000"
 preserveAspectRatio="xMidYMid meet">
<metadata>
Created by potrace 1.11, written by Peter Selinger 2001-2013
</metadata>
<g transform="translate(0.000000,260.000000) scale(0.100000,-0.100000)"
fill="#000000" stroke="none">
<path d="M1103 2566 c-134 -44 -216 -153 -217 -291 -1 -261 303 -396 513 -227
25 20 52 57 72 98 28 56 33 76 32 133 -2 120 -72 225 -182 274 -57 25 -162 32
-218 13z"/>
<path d="M1377 1884 c-1 -1 -50 -5 -108 -8 -58 -4 -115 -8 -125 -10 -10 -2
-41 -6 -69 -10 -82 -11 -233 -57 -290 -88 -67 -36 -146 -111 -172 -163 -31
-62 -46 -140 -41 -215 13 -185 168 -329 453 -419 l70 -22 47 -152 c25 -84 68
-217 93 -297 26 -80 69 -214 95 -297 54 -170 55 -173 75 -173 17 0 22 17 30
100 4 36 8 76 10 90 2 14 6 48 9 75 9 75 36 305 41 345 2 19 7 58 10 85 3 28
8 66 10 85 3 19 7 55 10 80 3 24 7 45 8 46 1 1 36 30 77 64 149 123 290 272
351 370 64 102 74 240 26 323 -69 118 -242 183 -505 190 -57 2 -104 2 -105 1z
m368 -175 c206 -67 181 -226 -72 -469 -48 -47 -95 -91 -104 -98 -16 -12 -15 2
15 243 3 22 8 63 11 90 3 28 7 64 9 80 2 17 7 62 11 100 4 39 9 73 12 78 5 9
37 2 118 -24z m-769 -394 c31 -99 59 -186 61 -192 8 -22 -15 -15 -110 31 -146
71 -216 153 -218 258 -2 101 38 177 121 227 l35 21 27 -83 c15 -45 52 -163 84
-262z"/>
</g>
</svg>
